<svg enable-background="new 0 0 20 20" height="20" viewBox="0 0 20 20" width="20" xmlns="http://www.w3.org/2000/svg"><path d="m0 0h20v20h-20z" fill="none"/><path d="m15.71 13.21-3.46-3.46 1.33-1.33-2-2-1.33 1.33-3.46-3.46c-.39-.39-1.03-.39-1.42 0l-1.08 1.08c-.39.39-.39 1.03 0 1.42l3.46 3.46-3.75 3.75v1.5c0 .28.22.5.5.5h1.5l3.75-3.75 3.46 3.46c.39.39 1.02.39 1.41 0l1.08-1.08c.4-.39.4-1.03.01-1.42zm-7.25-3.67-3.46-3.46 1.08-1.08.69.69-.21.21c-.18.18-.18.48 0 .67.18.18.48.18.67 0l.21-.21 1.06 1.06-.22.2c-.18.18-.18.48 0 .67.18.18.48.18.67 0l.21-.21.38.38zm5.46 5.46-3.46-3.46 1.08-1.08.4.4-.21.21c-.18.18-.18.48 0 .67.18.18.48.18.67 0l.21-.21 1.06 1.06-.21.21c-.18.18-.18.48 0 .67.18.18.48.18.67 0l.21-.21.66.66z"/><path d="m15.62 6.38c.2-.2.2-.51 0-.71l-1.29-1.29c-.2-.2-.51-.2-.71 0l-1.34 1.34 2 2z"/></svg>