<?xml version="1.0" encoding="UTF-8"?>
<!DOCTYPE svg PUBLIC "-//W3C//DTD SVG 1.1//EN" "http://www.w3.org/Graphics/SVG/1.1/DTD/svg11.dtd">
<svg xmlns="http://www.w3.org/2000/svg" version="1.1" width="3902px" height="4112px" style="shape-rendering:geometricPrecision; text-rendering:geometricPrecision; image-rendering:optimizeQuality; fill-rule:evenodd; clip-rule:evenodd" xmlns:xlink="http://www.w3.org/1999/xlink">
<g><path style="opacity:0.998" fill="#36a5dd" d="M 1784.5,-0.5 C 1819.17,-0.5 1853.83,-0.5 1888.5,-0.5C 2049.74,5.19864 2208.74,27.6986 2365.5,67C 2550.47,116.54 2726.14,188.54 2892.5,283C 3041.9,367.763 3181.9,465.763 3312.5,577C 3314.21,578.133 3314.71,579.633 3314,581.5C 3275.83,617 3237.67,652.5 3199.5,688C 2572.97,1298.61 1945.97,1908.77 1318.5,2518.5C 1318.17,2492.67 1317.83,2466.83 1317.5,2441C 1318.36,2178.17 1318.86,1915.33 1319,1652.5C 1209.17,1853.5 1099.33,2054.5 989.5,2255.5C 912.836,2256.67 836.169,2256.83 759.5,2256C 676.265,2103.69 592.932,1951.52 509.5,1799.5C 484.656,1751.49 458.99,1703.82 432.5,1656.5C 432.013,1655.53 431.513,1654.53 431,1653.5C 430.168,1734 430.334,1814.33 431.5,1894.5C 434.372,2251.5 437.372,2608.5 440.5,2965.5C 293.5,2965.5 146.5,2965.5 -0.5,2965.5C -0.5,2180.83 -0.5,1396.17 -0.5,611.5C 97.0705,611.168 194.57,611.501 292,612.5C 488.333,1000.5 684.667,1388.5 881,1776.5C 904.571,1732.02 927.071,1687.02 948.5,1641.5C 1121.48,1299.53 1294.48,957.534 1467.5,615.5C 1557.16,614.005 1646.83,612.671 1736.5,611.5C 1734.46,954.498 1732.8,1297.5 1731.5,1640.5C 1730.17,1660 1730.17,1679.67 1731.5,1699.5C 1732.11,1699.38 1732.44,1699.04 1732.5,1698.5C 2191.13,1383.19 2649.46,1067.52 3107.5,751.5C 3103.5,753.167 3099.5,754.833 3095.5,756.5C 2907.89,629.324 2708.89,521.158 2498.5,432C 2404.68,392.617 2308.35,360.617 2209.5,336C 1983.27,287.515 1756.27,283.515 1528.5,324C 1443.43,341.913 1361.09,368.247 1281.5,403C 1168,452.993 1059.67,511.659 956.5,579C 844.817,651.993 738.817,732.66 638.5,821C 637.833,821.667 637.167,821.667 636.5,821C 579.318,718.305 522.652,615.305 466.5,512C 653.56,355.046 861.56,231.046 1090.5,140C 1313.96,54.0073 1545.3,7.17396 1784.5,-0.5 Z"/></g>
<g><path style="opacity:0.996" fill="#1d70b6" d="M 3095.5,756.5 C 3099.5,754.833 3103.5,753.167 3107.5,751.5C 2649.46,1067.52 2191.13,1383.19 1732.5,1698.5C 1731.5,1679.34 1731.17,1660.01 1731.5,1640.5C 1732.8,1297.5 1734.46,954.498 1736.5,611.5C 1646.83,612.671 1557.16,614.005 1467.5,615.5C 1498.43,586.683 1529.43,557.85 1560.5,529C 1647.83,529.162 1735.17,529.662 1822.5,530.5C 1822.17,828.834 1822.5,1127.17 1823.5,1425.5C 2247.53,1202.49 2671.53,979.487 3095.5,756.5 Z"/></g>
<g><path style="opacity:0.995" fill="#1d70b6" d="M 948.5,1641.5 C 927.071,1687.02 904.571,1732.02 881,1776.5C 684.667,1388.5 488.333,1000.5 292,612.5C 194.57,611.501 97.0705,611.168 -0.5,611.5C -0.5,611.167 -0.5,610.833 -0.5,610.5C 27.6009,584.568 55.2676,558.068 82.5,531C 174.835,530.167 267.168,530.333 359.5,531.5C 555.353,901.878 751.686,1271.88 948.5,1641.5 Z"/></g>
<g><path style="opacity:0.998" fill="#1d6fb6" d="M 3901.5,2017.5 C 3901.5,2048.5 3901.5,2079.5 3901.5,2110.5C 3898.24,2261.49 3875.07,2409.49 3832,2554.5C 3816.12,2607.13 3798.46,2659.13 3779,2710.5C 3678.24,2711.5 3577.4,2711.83 3476.5,2711.5C 3508.45,2627.82 3535.28,2542.49 3557,2455.5C 3611.41,2231.42 3619.07,2005.76 3580,1778.5C 3557.47,1628.27 3515.14,1483.93 3453,1345.5C 3385.09,1194.89 3299.09,1056.22 3195,929.5C 3192.71,1599.5 3190.88,2269.5 3189.5,2939.5C 3328.17,2939.5 3466.83,2939.5 3605.5,2939.5C 3607.41,3170.17 3609.41,3400.83 3611.5,3631.5C 3455.17,3631.5 3298.83,3631.5 3142.5,3631.5C 3142.5,3544.5 3142.5,3457.5 3142.5,3370.5C 2705.5,3367.52 2268.5,3364.52 1831.5,3361.5C 1788.67,3360.5 1745.67,3360.17 1702.5,3360.5C 1702.5,3457.17 1702.5,3553.83 1702.5,3650.5C 1533.83,3650.5 1365.17,3650.5 1196.5,3650.5C 1196.5,3413.5 1196.5,3176.5 1196.5,2939.5C 1258.17,2939.67 1319.83,2939.5 1381.5,2939C 1382.67,2937.83 1383.83,2936.67 1385,2935.5C 1987.1,2266.31 2589.43,1597.31 3192,928.5C 3262.97,844.367 3334.47,760.7 3406.5,677.5C 3615.84,940.872 3761.01,1237.21 3842,1566.5C 3875.54,1715.17 3895.37,1865.5 3901.5,2017.5 Z M 2757.5,1931.5 C 2748.87,2267.49 2740.54,2603.49 2732.5,2939.5C 2523.5,2939.5 2314.5,2939.5 2105.5,2939.5C 2322.47,2603.21 2539.81,2267.21 2757.5,1931.5 Z"/></g>
<g><path style="opacity:1" fill="#2786c6" d="M 3107.5,751.5 C 3108.67,749.584 3110.33,748.751 3112.5,749C 3111.09,750.372 3109.42,751.205 3107.5,751.5 Z"/></g>
<g><path style="opacity:1" fill="#2988c8" d="M 1731.5,1640.5 C 1731.17,1660.01 1731.5,1679.34 1732.5,1698.5C 1732.44,1699.04 1732.11,1699.38 1731.5,1699.5C 1730.17,1679.67 1730.17,1660 1731.5,1640.5 Z"/></g>
<g><path style="opacity:1" fill="#247fc1" d="M 432.5,1656.5 C 431.501,1735.66 431.167,1815 431.5,1894.5C 430.334,1814.33 430.168,1734 431,1653.5C 431.513,1654.53 432.013,1655.53 432.5,1656.5 Z"/></g>
<g><path style="opacity:0.995" fill="#1d70b6" d="M 432.5,1656.5 C 458.99,1703.82 484.656,1751.49 509.5,1799.5C 512.801,2158.5 515.634,2517.5 518,2876.5C 492.302,2906.36 466.468,2936.03 440.5,2965.5C 437.372,2608.5 434.372,2251.5 431.5,1894.5C 431.167,1815 431.501,1735.66 432.5,1656.5 Z"/></g>
<g><path style="opacity:0.996" fill="#3b4795" d="M 2757.5,1931.5 C 2539.81,2267.21 2322.47,2603.21 2105.5,2939.5C 2055.66,2939.83 2006,2939.5 1956.5,2938.5C 2225.47,2523.34 2494.3,2108.01 2763,1692.5C 2761.44,1772.16 2759.6,1851.83 2757.5,1931.5 Z"/></g>
<g><path style="opacity:0.949" fill="#2367af" d="M 1956.5,2938.5 C 2006,2939.5 2055.66,2939.83 2105.5,2939.5C 2314.5,2939.5 2523.5,2939.5 2732.5,2939.5C 2473.67,2940.83 2214.67,2940.83 1955.5,2939.5C 1955.62,2938.89 1955.96,2938.56 1956.5,2938.5 Z"/></g>
<g><path style="opacity:0.997" fill="#1d6fb7" d="M 1808.5,4111.5 C 1793.83,4111.5 1779.17,4111.5 1764.5,4111.5C 1341.51,4104.43 954.845,3983.6 604.5,3749C 383.602,3597.94 197.936,3411.77 47.5,3190.5C 172.832,3189.33 298.165,3189.17 423.5,3190C 632.873,3430.76 888.207,3605.09 1189.5,3713C 1520.76,3827.01 1857.1,3844.68 2198.5,3766C 2323.02,3736.16 2443.02,3693.83 2558.5,3639C 2744.17,3638.33 2929.83,3638.33 3115.5,3639C 2836.11,3865.98 2518.11,4012.32 2161.5,4078C 2044.58,4098.69 1926.91,4109.86 1808.5,4111.5 Z"/></g>
<g><path style="opacity:0.995" fill="#3b4795" d="M 1831.5,3361.5 C 1832.88,3428.5 1834.05,3495.5 1835,3562.5C 1790.95,3592.06 1746.78,3621.39 1702.5,3650.5C 1702.5,3553.83 1702.5,3457.17 1702.5,3360.5C 1745.67,3360.17 1788.67,3360.5 1831.5,3361.5 Z"/></g>
</svg>
