<svg height="2000" viewBox="0 0 2000 2000" width="2000" xmlns="http://www.w3.org/2000/svg"><path d="m825.74609 438.17383c-.0463 36.99847.01021 73.9978.10547 110.99609-31.55327 8.92669-60.38632 21.3842-87.61523 36.64453l-79.58203-78.625-148.80664 149.66797 79.57617 78.61133c-15.37167 27.55154-27.37512 56.8307-35.75195 87.24219l-112.72461.20508v210.78908l113.90234-.4102c10.4159 41.2984 33.08461 78.4252 55.66211 111.6231v-181.82425l-99.56445.35742v-70.66211l99.06835-.17968 5.56055-28.17188c8.10952-41.08459 24.16986-80.24945 47.24414-115.29297l15.78516-23.97265-69.60352-68.76172 50.09375-50.38477 69.73047 68.89258 23.73047-15.83594c36.26386-23.92554 75.92787-39.96352 115.48047-48.31641l27.95898-5.80468-.25-96.78516h71.9668l-.55664 96.28125h28.42773 160.40622c-17.7134-21.14365-91.1204-48.65765-118.5078-56.32422l.6348-109.95703c-78.40004-.002-139.86546.00438-212.37111-.00195zm199.15821 201.6582.2871 110.99219c-31.55442 8.92669-60.38757 21.38251-87.61718 36.64453l-79.58399-78.625-148.80664 149.66797 79.57813 78.61133c-15.37235 27.55303-27.3771 56.83125-35.75391 87.24415l-112.72265.2031v210.7891l113.90039-.4082c8.96543 31.257 21.39414 59.7998 36.625 86.7461l-81.49414 81.1757 150.46484 147.879 81.20117-80.8243c27.8143 15.4447 57.38048 27.436 88.03318 35.7813l.0528 114.7129c72.3917.6338 149.467.3073 211.3359.3008v-116.0704c31.5778-8.9038 60.501-21.4509 87.7363-36.705l81.1348 79.9961 148.9043-149.4805-81.3047-80.1231c15.407-27.6256 27.4124-56.9537 35.7988-87.3984l110.3789-.6816v-210.586l-111.6172.6797c-8.9724-31.28698-21.2213-59.63676-36.6543-86.7617l77.1211-77.31836-150.3808-148.13086-77.0215 77.28515c-27.7003-15.31896-57.1463-27.28236-87.6797-35.63867l.6328-109.95703zm70.1797 70h71.9668l-.5547 96.2832 28.4258 5.57813c41.2724 8.09903 80.8306 24.13939 116.0156 47.07226l23.8242 15.5293 67.2168-67.44531 50.6172 49.86133-67.3105 67.48242 16.1953 23.90625c23.7647 35.87289 39.5283 74.64989 48.4277 114.58009l5.8555 28.0117 97.2812-.5918v70.5899l-96.7383.5957-5.5566 28.0117c-8.1598 41.1307-24.1851 80.2941-47.2988 115.3984l-15.8028 24.0059 71.2578 70.2226-50.0859 50.2793-71.2656-70.2656-23.6895 15.7383c-36.2752 23.7065-75.6246 40.1227-115.3242 48.2109l-28.1445 5.6211v102.2149c-19.241.0467-40.2309.0166-71.3692-.0274l-.0449-101.4492-28.2715-5.5215c-41.3301-8.0708-80.8232-24.0375-115.94723-47.0664l-23.7539-15.5742-71.54102 71.2109-50.625-49.7578 71.64063-71.3613-16.34766-24.0039c-23.78683-35.7942-39.5229-74.6123-48.4375-114.4961l-5.84961-27.9258-99.56445.3555v-70.6602l99.06836-.1816 5.56054-28.168c8.10958-41.0849 24.17017-80.25187 47.24414-115.29492l15.78516-23.97461-69.60547-68.76172 50.09375-50.38476 69.73242 68.89258 23.73047-15.83399c36.30986-23.76972 74.84087-39.54139 115.48047-48.31445l27.9609-5.80469zm37.166 257.20313c-86.6469 0-157.63867 70.99364-157.63867 157.64064s70.99177 157.6367 157.63867 157.6367 157.6387-70.9897 157.6387-157.6367-70.9918-157.64064-157.6387-157.64064zm0 70.00004c48.8162 0 87.6387 38.8245 87.6387 87.6406s-38.8225 87.6367-87.6387 87.6367-87.6367-38.8206-87.6367-87.6367 38.8205-87.6406 87.6367-87.6406z"/></svg>